<?xml version="1.0" standalone="no"?>
<!DOCTYPE svg PUBLIC "-//W3C//DTD SVG 20010904//EN"
 "http://www.w3.org/TR/2001/REC-SVG-20010904/DTD/svg10.dtd">
<svg version="1.0" xmlns="http://www.w3.org/2000/svg"
 width="128.000000pt" height="128.000000pt" viewBox="0 0 128.000000 128.000000"
 preserveAspectRatio="xMidYMid meet">
<metadata>
Created by potrace 1.11, written by Peter Selinger 2001-2013
</metadata>
<g transform="translate(0.000000,128.000000) scale(0.100000,-0.100000)"
fill="#000000" stroke="none">
<path d="M0 640 l0 -640 640 0 640 0 0 640 0 640 -640 0 -640 0 0 -640z m847
278 l163 -93 0 -302 0 -303 -370 0 -370 0 0 303 0 302 163 92 c214 122 199
122 414 1z"/>
<path d="M290 785 c9 -11 17 -48 20 -94 5 -73 6 -76 30 -76 19 0 25 6 31 33
15 73 37 51 48 -47 l7 -71 -38 -12 c-21 -6 -45 -19 -53 -28 -15 -16 -14 -23 5
-76 20 -58 41 -84 67 -84 21 0 15 21 -12 46 -16 14 -25 34 -25 52 0 27 3 30
56 41 66 13 64 14 115 -88 26 -53 30 -67 20 -88 -15 -32 -14 -33 8 -33 18 0
36 33 31 55 -23 92 -40 161 -40 165 0 3 35 5 77 5 74 0 77 -1 84 -25 15 -52 9
-82 -24 -129 -50 -69 -51 -71 -25 -71 17 0 28 11 42 39 10 22 32 52 47 67 22
21 29 37 29 65 0 58 18 58 76 -3 57 -59 77 -115 55 -150 -10 -16 -8 -18 13
-18 15 0 25 7 28 18 7 24 -26 153 -45 184 -9 13 -18 52 -22 88 -4 36 -11 73
-16 82 -7 13 -6 16 5 12 20 -8 36 -58 36 -115 0 -48 1 -49 31 -49 l32 0 -6 57
c-3 32 -14 68 -25 82 -35 48 -65 56 -227 57 -82 1 -158 2 -167 3 -9 0 -45 27
-79 58 -61 57 -62 58 -133 62 -67 3 -70 3 -56 -14z"/>
</g>
</svg>
